<svg xmlns="http://www.w3.org/2000/svg" viewBox="0 0 512 512" fill="none">
  <defs>
    <linearGradient id="bg" x1="0" y1="0" x2="1" y2="1">
      <stop offset="0%" stop-color="#3BB5A6"/>
      <stop offset="100%" stop-color="#1A5C54"/>
    </linearGradient>
    <linearGradient id="shine" x1="0" y1="0" x2="0" y2="1">
      <stop offset="0%" stop-color="white" stop-opacity="0.15"/>
      <stop offset="50%" stop-color="white" stop-opacity="0"/>
    </linearGradient>
  </defs>

  <!-- Background -->
  <rect width="512" height="512" rx="108" fill="url(#bg)"/>
  <rect width="512" height="512" rx="108" fill="url(#shine)"/>

  <!-- Stylized "F" with rounded swirls -->
  <g transform="translate(256, 256)">
    <path d="
      M-60,-170
      C-60,-170 100,-175 120,-170
      C145,-164 155,-140 145,-120
      C135,-100 110,-95 90,-98
      C70,-101 20,-105 -10,-103

      M-10,-103
      C-10,-103 80,-100 100,-85
      C125,-67 120,-35 100,-22
      C80,-9 50,-12 30,-18
      C10,-24 -10,-30 -10,-30

      M-60,-170
      C-80,-170 -95,-155 -95,-135
      L-95,140
      C-95,165 -75,180 -55,180
      C-35,180 -20,165 -20,145
      L-20,-30
    " stroke="white" stroke-width="48" stroke-linecap="round" stroke-linejoin="round" fill="none" opacity="0.93"/>
  </g>
</svg>
